<?xml version="1.0" encoding="UTF-8" standalone="no"?><svg width="512" height="512" viewBox="0 0 512 512" fill="none" xmlns="http://www.w3.org/2000/svg">
<g clip-path="url(#clip0_1_2)">
<path d="M512 0H0V512H512V0Z" fill="black"/>
<path d="M170.41 213.65L133.39 255.95L170.41 298.35H147.9L132.08 280.22L115.71 298.35H98.8V213.65H115.71V235.84L122.96 244.08L148.77 213.65H170.41ZM115.7 261.55V276.05L122.08 268.8L115.7 261.55Z" fill="white"/>
<path d="M170.46 213.65H188.91L233.51 230.57L240.76 213.65H259.11L222.96 298.35H206.71L170.46 213.65ZM214.84 274.29L226.26 247.49L198.58 236.61L214.84 274.29Z" fill="white"/>
<path d="M310.57 229.69V282.31C314.63 280.99 318.15 278.79 321.22 275.72L333.2 287.7C324.74 296.15 313.86 300.55 302.11 300.55C276.3 300.55 258.06 281.76 258.06 256.05C258.06 230.34 276.3 211.45 302.11 211.45C313.43 211.45 324.74 215.85 333.2 224.3L321.22 236.27C318.14 233.19 314.41 231 310.57 229.68V229.69ZM293.65 247.49V229.69C284.97 232 278.27 238.48 276.3 247.49H293.65ZM276.3 264.52C278.94 273.75 284.98 279.68 293.65 282.32V264.52H276.3Z" fill="white"/>
<path d="M396.3 247.49V213.65H413.21V298.35H396.3V289.89H358.95V298.35H342.04V213.65H358.95V247.49H396.3ZM369.16 264.52H358.94V272.98H369.16V264.52ZM386.08 264.52V272.98H396.3V264.52H386.08Z" fill="white"/>
</g>
<defs>
<clipPath id="clip0_1_2">
<rect width="512" height="512" fill="white"/>
</clipPath>
</defs>
</svg>
